<svg width="74" height="73" viewBox="0 0 74 73" fill="none" xmlns="http://www.w3.org/2000/svg">
<path d="M11.9518 46.6894C12.5529 46.6894 13.0403 46.202 13.0403 45.6009V38.0993C13.0403 37.4981 12.5529 37.0107 11.9518 37.0107C11.3506 37.0107 10.8633 37.4981 10.8633 38.0993V45.6009C10.8633 46.202 11.3506 46.6894 11.9518 46.6894Z" fill="#F9254A"/>
<path d="M11.9518 31.6866C12.5529 31.6866 13.0403 31.1992 13.0403 30.5981V27.584L15.6207 26.0265C16.1353 25.7157 16.3008 25.0468 15.99 24.532C15.6795 24.0175 15.0104 23.8519 14.4956 24.1626L11.3893 26.0376C11.0628 26.2347 10.8633 26.5881 10.8633 26.9695V30.5979C10.8633 31.1992 11.3506 31.6866 11.9518 31.6866Z" fill="#F9254A"/>
<path d="M21.3417 22.3906C21.5331 22.3906 21.7272 22.3401 21.9032 22.2339L28.1857 18.4415C28.7003 18.1308 28.8658 17.4618 28.5551 16.947C28.2445 16.4325 27.5755 16.2669 27.0606 16.5777L20.7781 20.3701C20.2635 20.6808 20.098 21.3497 20.4088 21.8645C20.6131 22.2033 20.9729 22.3906 21.3417 22.3906Z" fill="#F9254A"/>
<path d="M45.7769 18.4484L52.0072 22.2381C52.184 22.3457 52.3791 22.3968 52.5718 22.3968C52.9393 22.3968 53.2979 22.2107 53.5028 21.8737C53.8152 21.3601 53.6522 20.6906 53.1386 20.3781L46.9082 16.5883C46.3947 16.276 45.725 16.4391 45.4126 16.9526C45.1002 17.4664 45.2632 18.1359 45.7769 18.4484Z" fill="#F9254A"/>
<path d="M58.2369 26.0273L60.8139 27.5949V30.6114C60.8139 31.2126 61.3013 31.6999 61.9025 31.6999C62.5036 31.6999 62.991 31.2126 62.991 30.6114V26.983C62.991 26.6031 62.7929 26.2505 62.468 26.053L59.3681 24.1674C58.8545 23.8551 58.185 24.0182 57.8725 24.5317C57.5602 25.0453 57.7233 25.715 58.2369 26.0273Z" fill="#F9254A"/>
<path d="M61.903 37.0156C61.3018 37.0156 60.8145 37.503 60.8145 38.1041V45.5968C60.8145 46.1979 61.3018 46.6853 61.903 46.6853C62.5041 46.6853 62.9915 46.1979 62.9915 45.5968V38.1041C62.9915 37.503 62.5041 37.0156 61.903 37.0156Z" fill="#F9254A"/>
<path d="M52.0073 61.4634L45.7769 65.2532C45.2633 65.5656 45.1002 66.2353 45.4126 66.7488C45.6176 67.0856 45.9762 67.2719 46.3437 67.2719C46.5364 67.2719 46.7316 67.2206 46.9082 67.1132L53.1386 63.3235C53.6523 63.011 53.8154 62.3413 53.5029 61.8278C53.1904 61.3143 52.5211 61.1508 52.0073 61.4634Z" fill="#F9254A"/>
<path d="M39.5468 69.0425L37.0103 70.5853L34.4686 69.051C33.9539 68.7402 33.2848 68.9058 32.9742 69.4204C32.6635 69.9351 32.8289 70.6041 33.3436 70.9149L36.4499 72.7899C36.6229 72.8944 36.8177 72.9465 37.0124 72.9465C37.2084 72.9465 37.4044 72.8936 37.578 72.788L40.678 70.9024C41.1916 70.5899 41.3547 69.9203 41.0423 69.4068C40.7301 68.8933 40.0606 68.73 39.5468 69.0425Z" fill="#F9254A"/>
<path d="M28.1858 65.2587L21.9032 61.4664C21.3881 61.1556 20.7193 61.3212 20.4088 61.8358C20.098 62.3505 20.2635 63.0195 20.7781 63.3303L27.0607 67.1225C27.2368 67.2287 27.4307 67.2792 27.6223 67.2792C27.9911 67.2792 28.3508 67.0917 28.5552 66.7531C28.8658 66.2385 28.7005 65.5694 28.1858 65.2587Z" fill="#F9254A"/>
<path d="M36.9997 28.6038C37.6008 28.6038 38.0882 28.1165 38.0882 27.5153V26.6793C38.0882 26.0782 37.6008 25.5908 36.9997 25.5908C36.3985 25.5908 35.9111 26.0782 35.9111 26.6793V27.5153C35.9111 28.1165 36.3984 28.6038 36.9997 28.6038Z" fill="#F9254A"/>
<path d="M36.9997 34.846C37.6008 34.846 38.0882 34.3587 38.0882 33.7575V32.9215C38.0882 32.3204 37.6008 31.833 36.9997 31.833C36.3985 31.833 35.9111 32.3204 35.9111 32.9215V33.7575C35.9111 34.3587 36.3984 34.846 36.9997 34.846Z" fill="#F9254A"/>
<path d="M69.4448 57.0451C68.2818 57.0451 67.2199 57.4837 66.4141 58.2035L62.9915 56.2479V53.0892C62.9915 52.488 62.5041 52.0007 61.903 52.0007C61.3018 52.0007 60.8145 52.488 60.8145 53.0892V55.004L56.8933 52.7635C56.8942 52.7387 56.8958 52.7139 56.8958 52.6891V31.0116C56.8958 30.2632 56.4986 29.5567 55.859 29.1674L38.1196 18.3767C38.1093 18.3705 38.0987 18.3653 38.0884 18.3592V13.7713L39.5463 14.6581C39.7231 14.7656 39.9182 14.8167 40.1109 14.8167C40.4784 14.8167 40.837 14.6307 41.0419 14.2937C41.3543 13.78 41.1913 13.1105 40.6777 12.798L38.0884 11.223V8.97807C40.0762 8.48867 41.5551 6.6919 41.5551 4.55522C41.5551 2.04336 39.5116 0 36.9999 0C34.4882 0 32.4447 2.04351 32.4447 4.55522C32.4447 6.6919 33.9236 8.48867 35.9114 8.97807V11.2354L33.3432 12.7856C32.8286 13.0963 32.6631 13.7652 32.9739 14.28C33.2846 14.7948 33.9535 14.9603 34.4683 14.6494L35.9114 13.7783V18.3569C35.9018 18.3625 35.8918 18.3673 35.8822 18.3731L18.002 29.1662C17.3586 29.5546 16.9589 30.2627 16.9589 31.0143V37.7144C16.9589 38.3156 17.4463 38.8029 18.0474 38.8029C18.6486 38.8029 19.1359 38.3156 19.1359 37.7144V32.3388L35.9113 42.465V62.8025L19.3516 52.8066C19.3423 52.788 19.3339 52.7692 19.3233 52.7509C19.2712 52.6599 19.2075 52.5799 19.1358 52.5102V42.3534C19.1358 41.7522 18.6484 41.2649 18.0473 41.2649C17.4461 41.2649 16.9588 41.7522 16.9588 42.3534V52.6869C16.9588 52.7397 16.9612 52.7922 16.9652 52.8445L13.0404 55.087V53.1028C13.0404 52.5017 12.553 52.0143 11.9519 52.0143C11.3507 52.0143 10.8634 52.5017 10.8634 53.1028V56.3308L7.58593 58.2033C6.78014 57.4836 5.71804 57.045 4.55522 57.045C2.04351 57.0451 0 59.0886 0 61.6005C0 64.1124 2.04351 66.1557 4.55522 66.1557C7.06693 66.1557 9.11043 64.1122 9.11043 61.6005C9.11043 61.0394 9.00782 60.5018 8.82147 60.005L12.1336 58.1126L14.4955 59.5384C14.6714 59.6447 14.8655 59.6952 15.0571 59.6952C15.4259 59.6952 15.7856 59.5077 15.99 59.1691C16.3007 58.6544 16.1353 57.9853 15.6206 57.6746L14.2977 56.8761L18.1931 54.6503L35.8821 65.3277C35.9923 65.3942 36.1068 65.4488 36.224 65.4941C36.4216 65.6948 36.696 65.8196 36.9998 65.8196C37.3049 65.8196 37.5802 65.6938 37.7779 65.4916C37.895 65.446 38.0095 65.391 38.1194 65.3241L45.1261 61.0621C45.6397 60.7496 45.8028 60.0799 45.4903 59.5664C45.1779 59.0529 44.5082 58.8895 43.9947 59.2021L38.0883 62.795V42.4624L54.7185 32.3463V52.6787L48.0008 56.765C47.4871 57.0775 47.3241 57.7472 47.6365 58.2608C47.8414 58.5977 48.2 58.7837 48.5675 58.7837C48.7602 58.7837 48.9555 58.7325 49.1322 58.6251L55.7344 54.609L59.6225 56.8306L58.2371 57.6733C57.7235 57.9858 57.5604 58.6554 57.8729 59.1689C58.0778 59.5058 58.4364 59.692 58.8039 59.692C58.9966 59.692 59.1918 59.6407 59.3685 59.5333L61.7827 58.0649L65.1784 60.005C64.992 60.5018 64.8894 61.0393 64.8894 61.6005C64.8894 64.1124 66.9329 66.1557 69.4446 66.1557C71.9564 66.1557 73.9999 64.1122 73.9999 61.6005C73.9999 59.0888 71.9566 57.0451 69.4448 57.0451ZM4.55522 63.9787C3.24392 63.9787 2.17703 62.9118 2.17703 61.6005C2.17703 60.2892 3.24392 59.2223 4.55522 59.2223C5.86652 59.2223 6.9334 60.2892 6.9334 61.6005C6.9334 62.9118 5.86652 63.9787 4.55522 63.9787ZM34.6217 4.55522C34.6217 3.24392 35.6886 2.17703 36.9999 2.17703C38.3112 2.17703 39.3781 3.24392 39.3781 4.55522C39.3781 5.86651 38.3114 6.9334 37.0001 6.9334C35.6888 6.9334 34.6217 5.86651 34.6217 4.55522ZM35.9116 20.8985V22.0439C35.9116 22.645 36.3989 23.1324 37.0001 23.1324C37.6012 23.1324 38.0886 22.645 38.0886 22.0439V20.9062L53.7128 30.4102L38.0886 39.9142V38.6394C38.0886 38.0382 37.6012 37.5509 37.0001 37.5509C36.3989 37.5509 35.9116 38.0382 35.9116 38.6394V39.9219L20.1541 30.4101L35.9116 20.8985ZM69.4448 63.9787C68.1335 63.9787 67.0666 62.9118 67.0666 61.6005C67.0666 60.2892 68.1335 59.2223 69.4448 59.2223C70.7561 59.2223 71.823 60.2892 71.823 61.6005C71.823 62.9118 70.7561 63.9787 69.4448 63.9787Z" fill="#F9254A"/>
</svg>
