<svg width="74" height="74" viewBox="0 0 74 74" fill="none" xmlns="http://www.w3.org/2000/svg">
<path d="M8.35547 4.77441H10.7426V7.16151H8.35547V4.77441Z" fill="#3ECF8E"/>
<path d="M9.89831 21.834L4.28027 27.452L9.89831 33.0701L11.586 31.3824L7.65563 27.452L11.586 23.5217L9.89831 21.834Z" fill="#3ECF8E"/>
<path d="M74 37.29C74 33.8395 71.1928 31.0323 67.7434 31.0323C66.5582 31.0323 65.4327 31.3736 64.4516 31.9847V3.58065C64.4516 1.60652 62.8451 0 60.871 0H8.35484C6.38071 0 4.77419 1.60652 4.77419 3.58065V14.3226H3.58065C1.60652 14.3226 0 15.9291 0 17.9032V37C0 38.9741 1.60652 40.5806 3.58065 40.5806H4.77419V70.4194C4.77419 72.3935 6.38071 74 8.35484 74H60.871C62.8451 74 64.4516 72.3935 64.4516 70.4194V49.4296L72.1679 41.7133C73.3495 40.5317 74 38.961 74 37.29ZM8.35484 2.3871H60.871C61.5298 2.3871 62.0645 2.923 62.0645 3.58065V9.54839H7.16129V3.58065C7.16129 2.923 7.696 2.3871 8.35484 2.3871ZM2.3871 37V17.9032C2.3871 17.2456 2.92181 16.7097 3.58065 16.7097H29.8387C30.4975 16.7097 31.0323 17.2456 31.0323 17.9032V37C31.0323 37.6576 30.4975 38.1936 29.8387 38.1936H3.58065C2.92181 38.1936 2.3871 37.6576 2.3871 37ZM62.0645 70.4194C62.0645 71.0782 61.5298 71.6129 60.871 71.6129H8.35484C7.696 71.6129 7.16129 71.0782 7.16129 70.4194V40.5806H29.8387C31.8128 40.5806 33.4194 38.9741 33.4194 37V17.9032C33.4194 15.9291 31.8128 14.3226 29.8387 14.3226H7.16129V11.9355H62.0645V34.1188L59.6774 36.5059V28.6452H38.1936V40.5806H55.6026L37.0692 59.1141L35.594 69.4383L45.9182 67.963L62.0645 51.8167V70.4194ZM39.0374 62.2089L42.8233 65.9949L38.4072 66.6251L39.0374 62.2089ZM45.3548 65.151L43.4619 63.2581L63.2581 43.4619L65.151 45.3548L45.3548 65.151ZM41.7742 61.5704L39.8812 59.6774L59.6774 39.8812L61.5704 41.7742L41.7742 61.5704ZM57.2903 38.1936H40.5806V31.0323H48.9355H57.2903V38.1936ZM70.4802 40.0256L66.8387 43.6672L61.3651 38.1936L65.0066 34.5532H65.0078C65.7371 33.8216 66.7086 33.4194 67.7434 33.4194C69.8775 33.4194 71.6129 35.156 71.6129 37.29C71.6129 38.3093 71.1999 39.3059 70.4802 40.0256Z" fill="#3ECF8E"/>
<path d="M17.9033 4.77441H20.2904V7.16151H17.9033V4.77441Z" fill="#3ECF8E"/>
<path d="M13.2051 34.2432L17.9909 19.9159L20.2551 20.6723L15.4693 34.9995L13.2051 34.2432Z" fill="#3ECF8E"/>
<path d="M21.834 23.5217L25.7643 27.452L21.834 31.3824L23.5217 33.0701L29.1397 27.452L23.5217 21.834L21.834 23.5217Z" fill="#3ECF8E"/>
<path d="M9.54883 62.0645H33.4198V64.4516H9.54883V62.0645Z" fill="#3ECF8E"/>
<path d="M21.4838 59.6775H23.8709V47.742H26.258V45.3549H23.8709V42.9678H21.4838V45.3549H19.0967V47.742H21.4838V59.6775Z" fill="#3ECF8E"/>
<path d="M31.0322 66.8389H33.4193V69.226H31.0322V66.8389Z" fill="#3ECF8E"/>
<path d="M57.29 66.8389H59.6771V69.226H57.29V66.8389Z" fill="#3ECF8E"/>
<path d="M57.29 62.0645H59.6771V64.4516H57.29V62.0645Z" fill="#3ECF8E"/>
</svg>
