<svg width="85" height="48" viewBox="0 0 85 48" fill="none" xmlns="http://www.w3.org/2000/svg">
<path d="M42.5 41.4296C47.627 37.1481 50.8651 30.8518 50.8651 23.8C50.8651 16.7481 47.627 10.5778 42.5 6.17037C38.0476 2.39259 31.9762 0 25.5 0C11.4683 0 0 10.7037 0 23.8C0 36.8963 11.4683 47.4741 25.5 47.4741C31.9762 47.6 38.0476 45.2074 42.5 41.4296Z" fill="#07A9E2"/>
<path d="M0 23.8C0 36.8963 11.4683 47.4741 25.5 47.4741C32.1111 47.4741 38.0476 45.2074 42.5 41.3037C47.627 37.0222 50.8651 30.7259 50.8651 23.6741C50.8651 16.6222 47.627 10.5778 42.5 6.17037C38.0476 2.39259 31.9762 0 25.5 0" fill="#009DDD"/>
<path d="M42.4998 6.17037C38.0474 2.39259 31.976 0 25.4998 0C25.0951 0 24.6903 0 24.2855 0C16.3252 5.41481 11.1982 14.1037 11.1982 23.8C11.1982 33.4963 16.3252 42.1852 24.1506 47.4741C24.5554 47.4741 24.9601 47.4741 25.3649 47.4741C31.976 47.4741 37.9125 45.2074 42.3649 41.3037C47.4919 37.0222 50.73 30.7259 50.73 23.6741C50.73 16.6222 47.6268 10.5778 42.4998 6.17037Z" fill="#0284CC"/>
<path d="M59.6351 0C53.024 0 47.0875 2.26667 42.5002 6.17037C41.5558 6.92592 40.7462 7.80741 39.9367 8.68889H45.0637C45.7383 9.44444 46.4129 10.3259 46.9526 11.2074H37.9129C37.3732 12.0889 36.8335 12.8444 36.4288 13.7259H48.4367C48.8415 14.6074 49.2462 15.363 49.5161 16.2444H35.4843C35.2145 17.1259 34.9446 17.8815 34.6748 18.763H50.3256C50.7304 20.4 50.8653 22.037 50.8653 23.8C50.8653 26.4444 50.4605 28.963 49.5161 31.3555H35.4843C35.7542 32.237 36.1589 32.9926 36.5637 33.8741H48.5716C48.1669 34.7555 47.6272 35.637 47.0875 36.3926H38.0478C38.5875 37.2741 39.2621 38.1555 39.9367 38.9111H45.0637C44.2542 39.7926 43.4446 40.6741 42.5002 41.4296C47.0875 45.2074 53.024 47.6 59.6351 47.6C73.6669 47.6 85.0002 37.0222 85.0002 23.9259C85.0002 10.7037 73.6669 0 59.6351 0Z" fill="#FF2957"/>
<path d="M59.6351 0C53.024 0 47.0875 2.26667 42.5002 6.17037C41.5558 6.92592 40.7462 7.80741 39.9367 8.68889H45.0637C45.7383 9.44444 46.4129 10.3259 46.9526 11.2074H37.9129C37.3732 12.0889 36.8335 12.8444 36.4288 13.7259H48.4367C48.8415 14.6074 49.2462 15.363 49.5161 16.2444H35.4843C35.2145 17.1259 34.9446 17.8815 34.6748 18.763H50.3256C50.7304 20.4 50.8653 22.037 50.8653 23.8C50.8653 26.4444 50.4605 28.963 49.5161 31.3555H35.4843C35.7542 32.237 36.1589 32.9926 36.5637 33.8741H48.5716C48.1669 34.7555 47.6272 35.637 47.0875 36.3926H38.0478C38.5875 37.2741 39.2621 38.1555 39.9367 38.9111H45.0637C44.2542 39.7926 43.4446 40.6741 42.5002 41.4296C47.0875 45.2074 53.024 47.6 59.6351 47.6C73.6669 47.6 85.0002 37.0222 85.0002 23.9259" fill="#ED1C2E"/>
<path d="M42.5 41.4292C47.627 37.1477 50.8651 30.8514 50.8651 23.7995C50.8651 16.7477 47.627 10.5773 42.5 6.16992V41.4292Z" fill="#0466B5"/>
<path d="M76.2305 28.9626C76.2305 28.5848 76.6352 28.207 77.04 28.207C77.4448 28.207 77.8495 28.5848 77.8495 28.9626C77.8495 29.3404 77.4448 29.7181 77.04 29.7181C76.6352 29.7181 76.2305 29.3404 76.2305 28.9626ZM77.04 29.5922C77.4448 29.5922 77.5797 29.3404 77.5797 28.9626C77.5797 28.5848 77.3098 28.4589 77.04 28.4589C76.6352 28.4589 76.3654 28.7107 76.3654 28.9626C76.3654 29.2144 76.7701 29.5922 77.04 29.5922ZM77.04 29.2144H76.9051V28.5848H77.1749C77.3098 28.5848 77.3098 28.5848 77.3098 28.5848L77.4448 28.7107C77.4448 28.8367 77.4448 28.8367 77.3098 28.8367L77.4448 29.0885H77.3098L77.1749 28.8367H77.04V29.2144ZM77.04 28.8367C77.1749 28.8367 77.1749 28.8367 77.1749 28.8367C77.1749 28.8367 77.1749 28.8367 77.1749 28.7107H77.04V28.8367Z" fill="white"/>
<path d="M42.5002 6.17004C41.5558 6.9256 40.7462 7.80708 39.9367 8.68856H45.0637C45.7383 9.44412 46.4129 10.3256 46.9526 11.2071H37.9129C37.3732 12.0886 36.8335 12.8441 36.4288 13.7256H48.4367C48.8415 14.6071 49.2462 15.3626 49.5161 16.2441H35.4843C35.2145 17.1256 34.9446 17.8812 34.6748 18.7626H50.3256C50.7304 20.3997 50.8653 22.0367 50.8653 23.7997C50.8653 26.4441 50.4605 28.9626 49.5161 31.3552H35.4843C35.7542 32.2367 36.1589 32.9923 36.5637 33.8737H48.5716C48.1669 34.7552 47.6272 35.6367 47.0875 36.3923H38.0478C38.5875 37.2737 39.2621 38.1552 39.9367 38.9108H45.0637C44.2542 39.7923 43.4446 40.6737 42.5002 41.4293C47.0875 45.2071 53.024 47.5997 59.6351 47.5997C60.0399 47.5997 60.4446 47.5997 60.8494 47.5997C68.6748 42.3108 73.8018 33.6219 73.8018 23.9256C73.8018 14.2293 68.6748 5.54041 60.8494 0.251526C60.4446 0.251526 60.0399 0.251526 59.6351 0.251526C53.024 -0.000325635 47.0875 2.39227 42.5002 6.17004Z" fill="#D1094B"/>
<path d="M22.2619 29.7188H19.0238L20.9127 20.5262L16.5952 29.7188H13.7619L13.2222 20.5262L11.3333 29.7188H8.5L10.9286 17.6299H15.9206L16.1905 25.1854L19.6984 17.6299H24.8254L22.2619 29.7188Z" fill="white"/>
<path d="M19.1584 24.4299L21.0472 20.5262L19.5631 27.8299C19.698 28.4596 19.833 29.2151 20.1028 29.8447H22.2615L24.6901 17.7559H19.9679C19.4282 19.6447 19.0234 21.7855 19.0234 23.9262C19.1584 24.0522 19.1584 24.1781 19.1584 24.4299Z" fill="#DCE5E5"/>
<path d="M57.6109 29.5929C56.6664 29.8447 56.1268 29.9707 55.3172 29.9707C53.6982 29.9707 52.8887 29.2151 52.8887 27.8299C52.8887 27.5781 52.8887 27.3262 53.0236 26.9484L53.1585 25.941L53.2934 25.1855L54.7776 17.7559H57.8807L57.476 20.0225H59.095L58.6903 22.2892H57.0712L56.2617 26.3188C56.2617 26.4447 56.1268 26.6966 56.1268 26.6966C56.1268 27.2003 56.5315 27.4522 57.2061 27.4522C57.6109 27.4522 57.8807 27.4522 58.0157 27.3262L57.6109 29.5929Z" fill="#DCE5E5"/>
<path d="M66.9196 20.0224C66.6498 19.8964 66.6498 19.8964 66.5148 19.8964C66.3799 19.8964 66.245 19.8964 66.245 19.7705C66.1101 19.7705 66.1101 19.7705 65.8402 19.7705C64.7609 19.7705 64.0863 20.1483 63.1418 21.4075L63.4117 19.8964H60.5783L58.6895 29.7187H61.9275C63.0069 23.6742 63.5466 22.6668 65.0307 22.6668C65.1656 22.6668 65.3006 22.6668 65.4355 22.6668L65.8402 22.7927L66.9196 20.0224Z" fill="#DCE5E5"/>
<path d="M45.0629 23.0446C45.0629 24.3038 45.8724 25.1853 47.4915 25.689C48.8407 26.1927 48.9756 26.3187 48.9756 26.8224C48.9756 27.452 48.4359 27.7038 47.0867 27.7038C46.1423 27.7038 45.1978 27.5779 44.2534 27.3261L43.8486 29.5927H43.9836L44.5232 29.7187C44.6582 29.7187 45.0629 29.7187 45.3328 29.7187C46.1423 29.8446 46.682 29.8446 47.0867 29.8446C50.4597 29.8446 52.0788 28.8372 52.0788 26.5705C52.0788 25.1853 51.4042 24.4298 49.7851 23.8001C48.4359 23.2964 48.301 23.1705 48.301 22.7927C48.301 22.289 48.8407 22.0372 49.9201 22.0372C50.4597 22.0372 51.4042 22.0372 52.2137 22.1631L52.6185 19.8964C51.8089 19.7705 50.5947 19.7705 49.7851 19.7705C46.2772 19.7705 45.0629 21.2816 45.0629 23.0446Z" fill="#DCE5E5"/>
<path d="M32.515 29.7186H29.9515V28.7112C29.1419 29.4668 28.0626 29.8445 26.5785 29.8445C24.8245 29.8445 23.7451 28.7112 23.7451 27.2001C23.7451 24.8075 25.7689 23.4223 29.2769 23.4223C29.6816 23.4223 30.0864 23.4223 30.6261 23.4223C30.761 23.0445 30.761 22.9186 30.761 22.7927C30.761 22.163 30.2213 21.9112 28.7372 21.9112C27.7927 21.9112 26.8483 22.0371 26.1737 22.163L25.7689 22.289H25.4991L25.9038 20.1482C27.5229 19.7705 28.4673 19.6445 29.6816 19.6445C32.38 19.6445 33.8642 20.6519 33.8642 22.5408C33.8642 23.0445 33.8642 23.4223 33.5943 24.5556L32.9197 28.0816L32.7848 28.7112L32.6499 29.2149V29.5927L32.515 29.7186ZM30.2213 25.3112C29.8165 25.3112 29.6816 25.3112 29.5467 25.3112C27.7927 25.3112 26.8483 25.8149 26.8483 26.8223C26.8483 27.4519 27.2531 27.8297 27.9277 27.8297C29.2769 27.8297 30.2213 26.8223 30.2213 25.3112Z" fill="#DCE5E5"/>
<path d="M42.9044 29.4668C41.8251 29.7186 40.7457 29.8445 39.6664 29.8445C36.1584 29.8445 34.2695 28.3334 34.2695 25.4371C34.2695 22.0371 36.5632 19.6445 39.8013 19.6445C42.3648 19.6445 43.9838 21.0297 43.9838 23.1705C43.9838 23.926 43.8489 24.5556 43.5791 25.563H37.2378C37.2378 25.689 37.2378 25.8149 37.2378 25.9408C37.2378 27.0742 38.1822 27.7038 39.9362 27.7038C41.1505 27.7038 42.0949 27.5779 43.1743 27.0742L42.9044 29.4668ZM41.2854 23.6742C41.2854 23.5482 41.2854 23.2964 41.2854 23.1705C41.2854 22.4149 40.7457 21.9112 39.8013 21.9112C38.8568 21.9112 38.0473 22.5408 37.7775 23.6742H41.2854Z" fill="#DCE5E5"/>
<path d="M76.7697 25.3112C76.23 28.5853 73.8014 29.9705 70.5634 29.9705C67.0554 29.9705 65.5713 27.9556 65.5713 25.4371C65.5713 22.0371 67.9999 19.6445 71.7776 19.6445C75.0157 19.6445 76.7697 21.6593 76.7697 24.0519C76.7697 24.6816 76.7697 24.6816 76.7697 25.3112ZM73.3967 24.0519C73.3967 23.0445 72.9919 22.163 71.6427 22.163C70.0237 22.163 69.0792 23.926 69.0792 25.563C69.0792 26.8223 69.7538 27.7038 70.8332 27.7038C71.5078 27.7038 72.9919 26.8223 73.2618 25.3112C73.3967 24.8075 73.3967 24.4297 73.3967 24.0519Z" fill="white"/>
<path d="M65.7057 26.5701C65.8406 25.6886 65.9755 24.6812 65.9755 23.7997C65.9755 23.6738 65.9755 23.5479 65.9755 23.5479C65.8406 24.1775 65.7057 24.8071 65.7057 25.5627C65.5708 25.8145 65.5708 26.1923 65.7057 26.5701Z" fill="white"/>
</svg>
