<svg width="157" height="40" viewBox="0 0 157 40" fill="none" xmlns="http://www.w3.org/2000/svg">
<path d="M120.994 10.4346H112.547C112.05 10.4346 111.553 10.9315 111.304 11.4284L107.826 33.2916C107.826 33.7885 108.075 34.037 108.572 34.037H113.044C113.54 34.037 113.789 33.7885 113.789 33.2916L114.783 27.0805C114.783 26.5836 115.28 26.0867 116.025 26.0867H118.758C124.472 26.0867 127.702 23.3538 128.447 17.888C128.944 15.6519 128.447 13.6644 127.453 12.4221C125.963 11.1799 123.727 10.4346 120.994 10.4346ZM121.988 18.6333C121.491 21.6147 119.255 21.6147 117.019 21.6147H115.528L116.522 15.9004C116.522 15.6519 116.77 15.4035 117.267 15.4035H117.764C119.255 15.4035 120.745 15.4035 121.491 16.3973C121.988 16.6457 121.988 17.3911 121.988 18.6333Z" fill="#139AD6"/>
<path d="M60.1237 10.4346H51.6765C51.1796 10.4346 50.6827 10.9315 50.4343 11.4284L46.9561 33.2916C46.9561 33.7885 47.2045 34.037 47.7014 34.037H51.6765C52.1734 34.037 52.6703 33.5401 52.9188 33.0432L53.9126 27.0805C53.9126 26.5836 54.4094 26.0867 55.1548 26.0867H57.8877C63.602 26.0867 66.8318 23.3538 67.5771 17.888C68.074 15.6519 67.5771 13.6644 66.5833 12.4221C65.0926 11.1799 63.1051 10.4346 60.1237 10.4346ZM61.1175 18.6333C60.6206 21.6147 58.3846 21.6147 56.1486 21.6147H54.9063L55.9001 15.9004C55.9001 15.6519 56.1486 15.4035 56.6455 15.4035H57.1424C58.633 15.4035 60.1237 15.4035 60.8691 16.3973C61.1175 16.6457 61.3659 17.3911 61.1175 18.6333Z" fill="#263B80"/>
<path d="M85.7137 18.3846H81.7386C81.4902 18.3846 80.9933 18.633 80.9933 18.8815L80.7448 20.1237L80.4964 19.6268C79.5026 18.3846 77.7635 17.8877 75.7759 17.8877C71.3039 17.8877 67.3287 21.366 66.5834 26.0864C66.0865 28.5709 66.8318 30.8069 68.0741 32.2976C69.3163 33.7883 71.0554 34.2852 73.2914 34.2852C77.0181 34.2852 79.0057 32.0491 79.0057 32.0491L78.7573 33.2914C78.7573 33.7883 79.0057 34.0367 79.5026 34.0367H83.2293C83.7262 34.0367 84.2231 33.5398 84.4715 33.0429L86.7075 19.1299C86.4591 18.8815 85.9622 18.3846 85.7137 18.3846ZM79.9995 26.3349C79.5026 28.5709 77.7635 30.31 75.279 30.31C74.0368 30.31 73.043 29.8131 72.5461 29.3162C72.0492 28.5709 71.8008 27.5771 71.8008 26.3349C72.0492 24.0989 74.0368 22.3597 76.2728 22.3597C77.515 22.3597 78.2604 22.8566 79.0057 23.3535C79.751 24.0989 79.9995 25.3411 79.9995 26.3349Z" fill="#263B80"/>
<path d="M146.335 18.3846H142.36C142.111 18.3846 141.614 18.633 141.614 18.8815L141.366 20.1237L141.117 19.6268C140.124 18.3846 138.385 17.8877 136.397 17.8877C131.925 17.8877 127.95 21.366 127.204 26.0864C126.708 28.5709 127.453 30.8069 128.695 32.2976C129.937 33.7883 131.677 34.2852 133.913 34.2852C137.639 34.2852 139.627 32.0491 139.627 32.0491L139.378 33.2914C139.378 33.7883 139.627 34.0367 140.124 34.0367H143.85C144.347 34.0367 144.844 33.5398 145.093 33.0429L147.329 19.1299C147.08 18.8815 146.832 18.3846 146.335 18.3846ZM140.621 26.3349C140.124 28.5709 138.385 30.31 135.9 30.31C134.658 30.31 133.664 29.8131 133.167 29.3162C132.67 28.5709 132.422 27.5771 132.422 26.3349C132.67 24.0989 134.658 22.3597 136.894 22.3597C138.136 22.3597 138.881 22.8566 139.627 23.3535C140.621 24.0989 140.869 25.3411 140.621 26.3349Z" fill="#139AD6"/>
<path d="M107.329 18.3848H103.105C102.608 18.3848 102.36 18.6332 102.111 18.8817L96.6454 27.3288L94.161 19.3785C93.9125 18.8817 93.6641 18.6332 92.9187 18.6332H88.9436C88.4467 18.6332 88.1982 19.1301 88.1982 19.627L92.6703 32.7947L88.4467 38.7574C88.1982 39.2543 88.4467 39.9996 88.9436 39.9996H92.9187C93.4156 39.9996 93.6641 39.7511 93.9125 39.5027L107.577 19.8754C108.322 19.1301 107.826 18.3848 107.329 18.3848Z" fill="#263B80"/>
<path d="M151.055 11.1803L147.577 33.5405C147.577 34.0374 147.826 34.2858 148.322 34.2858H151.801C152.298 34.2858 152.795 33.7889 153.043 33.292L156.521 11.4287C156.521 10.9318 156.273 10.6834 155.776 10.6834H151.801C151.552 10.435 151.304 10.6834 151.055 11.1803Z" fill="#139AD6"/>
<path d="M28.5713 2.98135C26.8322 0.993782 23.6024 0 19.1304 0H6.70805C5.96271 0 5.21737 0.745335 4.96893 1.49067L0 34.0371C0 34.7825 0.496893 35.2794 0.993786 35.2794H8.69562L10.6832 23.1055V23.6024C10.9316 22.8571 11.677 22.1117 12.4223 22.1117H16.149C23.354 22.1117 28.8198 19.1304 30.5589 10.9316C30.5589 10.6832 30.5589 10.4347 30.5589 10.1863C30.3105 10.1863 30.3105 10.1863 30.5589 10.1863C30.8074 6.95649 30.3105 4.96892 28.5713 2.98135Z" fill="#263B80"/>
<path d="M30.3104 10.1865C30.3104 10.435 30.3104 10.6834 30.3104 10.9319C28.5712 19.379 23.1054 22.1119 15.9005 22.1119H12.1738C11.4284 22.1119 10.6831 22.8573 10.4347 23.6026L7.9502 38.7579C7.9502 39.2547 8.19864 39.7516 8.94398 39.7516H15.4036C16.1489 39.7516 16.8943 39.2548 16.8943 38.5094V38.261L18.1365 30.5591V30.0622C18.1365 29.3169 18.8818 28.82 19.6272 28.82H20.621C26.8321 28.82 31.8011 26.3355 33.0433 18.8821C33.5402 15.9008 33.2917 13.1679 31.8011 11.4288C31.5526 10.9319 31.0557 10.435 30.3104 10.1865Z" fill="#139AD6"/>
<path d="M28.5717 9.44065C28.3233 9.44065 28.0748 9.1922 27.8264 9.1922C27.5779 9.1922 27.3295 9.1922 27.0811 8.94375C26.0873 8.69531 25.0935 8.69531 23.8513 8.69531H14.1618C13.9134 8.69531 13.6649 8.69531 13.4165 8.94375C12.9196 9.1922 12.6712 9.68909 12.6712 10.186L10.6836 23.1052V23.6021C10.932 22.8568 11.6774 22.1114 12.4227 22.1114H16.1494C23.3544 22.1114 28.8202 19.1301 30.5593 10.9313C30.5593 10.6829 30.5593 10.4344 30.8077 10.186C30.3109 9.93754 30.0624 9.6891 29.5655 9.6891C28.8202 9.44065 28.8202 9.44065 28.5717 9.44065Z" fill="#232C65"/>
</svg>
