<svg width="74" height="74" viewBox="0 0 74 74" fill="none" xmlns="http://www.w3.org/2000/svg">
<g clip-path="url(#clip0_308_129)">
<path d="M35.8006 53.4004C35.202 53.4004 34.7168 53.8856 34.7168 54.4842C34.7168 55.0827 35.202 55.568 35.8006 55.568H40.1386C40.7372 55.568 41.2224 55.0827 41.2224 54.4842C41.2224 53.8856 40.7372 53.4004 40.1386 53.4004H35.8006Z" fill="#018AD9"/>
<path d="M72.102 12.1139H62.745V2.26179C62.745 1.01457 61.7303 0 60.483 0H15.4573C14.2101 0 13.1955 1.01457 13.1955 2.26179V12.1139H3.83851C2.27338 12.1139 1 13.3872 1 14.9524V56.9189C1 58.4841 2.27338 59.7574 3.83851 59.7574H27.1567V63.367C27.1567 63.3731 27.1567 63.379 27.1569 63.3851C27.2164 66.9691 25.5836 70.5206 24.9078 71.8327H21.4658C20.8673 71.8327 20.382 72.318 20.382 72.9165C20.382 73.515 20.8673 74.0003 21.4658 74.0003H54.4745C55.0731 74.0003 55.5583 73.515 55.5583 72.9165C55.5583 72.318 55.0731 71.8327 54.4745 71.8327H51.0315C50.3551 70.5232 48.7238 66.9821 48.7835 63.3851C48.7835 63.379 48.7836 63.3731 48.7836 63.367V59.7574H57.2135C57.812 59.7574 58.2972 59.2722 58.2972 58.6737C58.2972 58.0751 57.812 57.5899 57.2135 57.5899H3.83851C3.46858 57.5899 3.16758 57.2889 3.16758 56.9189V51.3792H72.7727V56.9189C72.7727 57.2889 72.4717 57.5899 72.1018 57.5899H62.271C61.6725 57.5899 61.1872 58.0751 61.1872 58.6737C61.1872 59.2722 61.6725 59.7574 62.271 59.7574H72.1018C73.6669 59.7574 74.9403 58.4841 74.9403 56.9189V14.9522C74.9403 13.3871 73.6671 12.1139 72.102 12.1139ZM29.3243 63.3581V59.7573H46.6162V63.3581C46.5626 66.7291 47.762 69.9631 48.6192 71.8324H27.3213C28.1785 69.9631 29.3779 66.7291 29.3243 63.3581ZM6.58599 19.9686V49.2115H3.16772V14.9522C3.16772 14.5823 3.46872 14.2813 3.83866 14.2813H13.1956V17.2743H9.20369C7.76023 17.2744 6.58599 18.4829 6.58599 19.9686ZM60.5774 49.2115H15.3631V40.7821C15.3631 40.1835 14.8778 39.6983 14.2793 39.6983C13.6807 39.6983 13.1955 40.1835 13.1955 40.7821V49.2115H8.75356V19.9686C8.75356 19.6783 8.95543 19.442 9.20355 19.442H13.1955V35.7244C13.1955 36.3229 13.6807 36.8082 14.2793 36.8082C14.8778 36.8082 15.3631 36.3229 15.3631 35.7244V2.26179C15.3631 2.20977 15.4053 2.16757 15.4573 2.16757H60.483C60.5351 2.16757 60.5772 2.20977 60.5772 2.26179V49.2115H60.5774ZM67.1868 49.2115H62.7448V19.442H66.7368C66.9849 19.442 67.1868 19.6783 67.1868 19.9686V49.2115ZM72.7727 49.2115H69.3543V19.9686C69.3543 18.4831 68.1801 17.2744 66.7368 17.2744H62.7448V14.2814H72.1018C72.4717 14.2814 72.7727 14.5824 72.7727 14.9524V49.2115Z" fill="#018AD9"/>
<path d="M22.5503 28.0363C23.9252 28.9146 25.4705 29.3609 27.1561 29.3632C28.5811 29.3632 29.925 29.0502 31.1504 28.4332C34.1813 26.9069 35.8504 24.3566 35.8504 21.2519V11.3542C35.8504 9.36361 34.231 7.74414 32.2404 7.74414C30.2499 7.74414 28.6302 9.36361 28.6302 11.3542V21.2519C28.6302 21.4237 28.6302 21.6185 27.9031 21.9847C27.6884 22.0928 27.4511 22.1431 27.153 22.1431C26.8645 22.1428 26.644 22.0837 26.4375 21.9517C25.8451 21.5733 25.8451 21.4562 25.8451 21.2623V11.3542C25.8451 9.36361 24.2256 7.74414 22.235 7.74414C20.2445 7.74414 18.625 9.36361 18.625 11.3542V21.2623C18.625 24.0533 19.9823 26.3957 22.5503 28.0363ZM20.7926 11.3542C20.7926 10.5588 21.4397 9.91172 22.235 9.91172C23.0304 9.91172 23.6775 10.5588 23.6775 11.3542V21.2623C23.6775 22.3266 24.139 23.0555 25.2704 23.7783C25.8216 24.1306 26.454 24.3096 27.1561 24.3106C27.7934 24.3106 28.3565 24.183 28.8778 23.9206C30.5987 23.0539 30.7977 21.9824 30.7977 21.2519V11.3542C30.7977 10.5588 31.4448 9.91172 32.2401 9.91172C33.0355 9.91172 33.6826 10.5588 33.6826 11.3542V21.2519C33.6826 23.528 32.4697 25.3418 30.1753 26.4973C29.2549 26.9608 28.2392 27.1957 27.146 27.1957C25.8923 27.1939 24.7386 26.8622 23.7171 26.2096C21.7491 24.9522 20.7924 23.3341 20.7924 21.2623V11.3542H20.7926Z" fill="#018AD9"/>
<path d="M56.5799 23.6725L52.3024 18.0363L55.778 13.4269C56.3587 12.657 56.6046 11.707 56.4706 10.752C56.3367 9.79708 55.8389 8.95144 55.0691 8.37096C54.299 7.79019 53.3486 7.54439 52.3939 7.6782C51.439 7.81216 50.5935 8.31012 50.013 9.0799L47.7662 12.0596L45.4981 9.0708C44.2945 7.48543 42.0255 7.17446 40.44 8.37761C38.8545 9.58104 38.5434 11.8501 39.7468 13.4357L43.249 18.0505L39.1951 23.4269C38.6145 24.1969 38.3685 25.1467 38.5025 26.1017C38.6364 27.0568 39.1342 27.9024 39.904 28.4827C40.5354 28.9589 41.2862 29.2106 42.0756 29.2106C43.2203 29.2106 44.2717 28.6869 44.96 27.7739L47.7849 24.0275L50.8283 28.0377C51.517 28.945 52.5658 29.4654 53.7058 29.4654C54.4992 29.4654 55.2532 29.2115 55.8864 28.7309C56.6546 28.1479 57.1498 27.3007 57.2807 26.3454C57.4118 25.3899 57.163 24.4406 56.5799 23.6725ZM54.5763 27.004C54.3233 27.1961 54.0223 27.2977 53.7061 27.2977C53.2499 27.2977 52.8304 27.0897 52.5551 26.727L48.6457 21.5757C48.4408 21.3056 48.1213 21.1471 47.7824 21.1471C47.7819 21.1471 47.7813 21.1471 47.7807 21.1471C47.4411 21.1477 47.1215 21.3072 46.917 21.5783L43.2295 26.4686C42.9545 26.8335 42.534 27.0427 42.0759 27.0427C41.7613 27.0427 41.4618 26.9422 41.2093 26.7517C40.9017 26.5198 40.7028 26.1819 40.6494 25.8004C40.5959 25.4188 40.6942 25.0392 40.9261 24.7317L45.4737 18.7008C45.7657 18.3135 45.7649 17.7794 45.4717 17.393L41.4736 12.1255C40.9929 11.4918 41.1171 10.5851 41.7507 10.1043C42.3843 9.62338 43.2911 9.7478 43.7718 10.3813L46.906 14.5113C47.1109 14.7813 47.4303 14.9399 47.7693 14.9399H47.771C48.1106 14.9394 48.4302 14.7798 48.6347 14.5087L51.7442 10.3849C51.9761 10.0773 52.314 9.87844 52.6955 9.82482C53.0771 9.77121 53.4566 9.86962 53.7644 10.1018C54.072 10.3338 54.2708 10.6716 54.3243 11.0531C54.3778 11.4348 54.2795 11.8144 54.0474 12.1219L50.0782 17.3861C49.7861 17.7733 49.787 18.3074 50.0802 18.6938L54.8533 24.9831C55.3341 25.6166 55.2098 26.5232 54.5763 27.004Z" fill="#018AD9"/>
<path d="M56.2316 32.7705H19.7088C19.1102 32.7705 18.625 33.2558 18.625 33.8543C18.625 34.4528 19.1102 34.9381 19.7088 34.9381H56.2316C56.8301 34.9381 57.3154 34.4528 57.3154 33.8543C57.3154 33.2558 56.8303 32.7705 56.2316 32.7705Z" fill="#018AD9"/>
<path d="M56.2316 37.1699H19.7088C19.1102 37.1699 18.625 37.6552 18.625 38.2537C18.625 38.8522 19.1102 39.3375 19.7088 39.3375H56.2316C56.8301 39.3375 57.3154 38.8522 57.3154 38.2537C57.3154 37.6552 56.8303 37.1699 56.2316 37.1699Z" fill="#018AD9"/>
<path d="M56.2316 41.5684H19.7088C19.1102 41.5684 18.625 42.0536 18.625 42.6521C18.625 43.2507 19.1102 43.7359 19.7088 43.7359H56.2316C56.8301 43.7359 57.3154 43.2507 57.3154 42.6521C57.3154 42.0536 56.8303 41.5684 56.2316 41.5684Z" fill="#018AD9"/>
</g>
<defs>
<clipPath id="clip0_308_129">
<rect width="74" height="74" fill="white"/>
</clipPath>
</defs>
</svg>
