<svg width="96" height="29" viewBox="0 0 96 29" fill="none" xmlns="http://www.w3.org/2000/svg">
<path d="M35.0732 28.241L39.9319 0.911133H47.5235L42.8167 28.241H35.0732Z" fill="#3C58BF"/>
<path d="M35.0732 28.241L41.2984 0.911133H47.5235L42.8167 28.241H35.0732Z" fill="#293688"/>
<path d="M70.2988 1.21466C68.7804 0.60733 66.3511 0 63.3145 0C55.7228 0 50.2568 3.79581 50.2568 9.26179C50.2568 13.3613 54.0527 15.4869 57.0893 16.8534C60.126 18.2199 61.037 19.1309 61.037 20.3456C61.037 22.1676 58.6076 23.0786 56.482 23.0786C53.4453 23.0786 51.7752 22.6231 49.194 21.5602L48.1312 21.1047L47.0684 27.3299C48.8904 28.089 52.2307 28.8482 55.7228 28.8482C63.77 28.8482 69.0841 25.0524 69.0841 19.2828C69.0841 16.0943 67.1103 13.6649 62.5553 11.6911C59.8223 10.3246 58.1521 9.56546 58.1521 8.19896C58.1521 6.9843 59.5186 5.76964 62.5553 5.76964C65.1365 5.76964 66.9584 6.22514 68.3249 6.83247L69.0841 7.13613L70.2988 1.21466Z" fill="#3C58BF"/>
<path d="M70.2988 1.21466C68.7804 0.60733 66.3511 0 63.3145 0C55.7228 0 51.6233 3.79581 51.6233 9.26179C51.6233 13.3613 54.0527 15.4869 57.0893 16.8534C60.126 18.2199 61.037 19.1309 61.037 20.3456C61.037 22.1676 58.6076 23.0786 56.482 23.0786C53.4453 23.0786 51.7752 22.6231 49.194 21.5602L48.1312 21.1047L47.0684 27.3299C48.8904 28.089 52.2307 28.8482 55.7228 28.8482C63.77 28.8482 69.0841 25.0524 69.0841 19.2828C69.0841 16.0943 67.1103 13.6649 62.5553 11.6911C59.8223 10.3246 58.1521 9.56546 58.1521 8.19896C58.1521 6.9843 59.5186 5.76964 62.5553 5.76964C65.1365 5.76964 66.9584 6.22514 68.3249 6.83247L69.0841 7.13613L70.2988 1.21466Z" fill="#293688"/>
<path d="M83.3566 0.911133C81.5346 0.911133 80.1681 1.06297 79.4089 2.88496L68.0215 28.241H76.2205L77.7388 23.686H87.4561L88.3671 28.241H95.655L89.2781 0.911133H83.3566ZM79.8644 19.1311C80.3199 17.7646 82.9011 11.0839 82.9011 11.0839C82.9011 11.0839 83.5084 9.41377 83.9639 8.35094L84.4194 10.9321C84.4194 10.9321 85.9377 17.7646 86.2414 19.2829H79.8644V19.1311Z" fill="#3C58BF"/>
<path d="M85.1786 0.911133C83.3566 0.911133 81.9901 1.06297 81.2309 2.88496L68.0215 28.241H76.2205L77.7388 23.686H87.4561L88.3671 28.241H95.655L89.2781 0.911133H85.1786ZM79.8644 19.1311C80.4718 17.6127 82.9011 11.0839 82.9011 11.0839C82.9011 11.0839 83.5084 9.41377 83.9639 8.35094L84.4194 10.9321C84.4194 10.9321 85.9377 17.7646 86.2414 19.2829H79.8644V19.1311Z" fill="#293688"/>
<path d="M21.1052 20.0416L20.3461 16.0939C18.9796 11.539 14.5764 6.52848 9.71777 4.09915L16.5502 28.3924H24.7492L37.0477 1.0625H28.8487L21.1052 20.0416Z" fill="#3C58BF"/>
<path d="M21.1052 20.0416L20.3461 16.0939C18.9796 11.539 14.5764 6.52848 9.71777 4.09915L16.5502 28.3924H24.7492L37.0477 1.0625H30.367L21.1052 20.0416Z" fill="#293688"/>
<path d="M0 0.911133L1.36649 1.2148C11.0838 3.49229 17.7644 9.26193 20.3456 16.0944L17.6126 3.18862C17.1571 1.36663 15.7906 0.911133 14.1204 0.911133H0Z" fill="#FFBC00"/>
<path d="M0 0.911133C9.71729 3.18862 17.7644 9.1101 20.3456 15.9426L17.7644 5.16245C17.3089 3.34046 15.7906 2.27763 14.1204 2.27763L0 0.911133Z" fill="#F7981D"/>
<path d="M0 0.911133C9.71729 3.18862 17.7644 9.1101 20.3456 15.9426L18.5236 10.0211C18.0681 8.1991 17.4608 6.37711 15.3351 5.61795L0 0.911133Z" fill="#ED7C00"/>
<path d="M28.6964 19.1305L23.5341 13.9682L21.1048 19.7379L20.4974 15.942C19.1309 11.3871 14.7278 6.37659 9.86914 3.94727L16.7016 28.2405H24.9006L28.6964 19.1305Z" fill="#051244"/>
<path d="M42.8167 28.2402L36.2879 21.5596L35.0732 28.2402H42.8167Z" fill="#051244"/>
<path d="M60.2778 18.8271C60.8851 19.4345 61.1888 19.89 61.037 20.4973C61.037 22.3193 58.6076 23.2303 56.482 23.2303C53.4453 23.2303 51.7752 22.7748 49.194 21.712L48.1312 21.2565L47.0684 27.4816C48.8904 28.2408 52.2307 28.9999 55.7228 28.9999C60.5815 28.9999 64.5291 27.6334 66.8066 25.2041L60.2778 18.8271Z" fill="#051244"/>
<path d="M69.084 28.2407H76.2201L77.7384 23.6857H87.4557L88.3667 28.2407H95.6547L93.0735 17.1569L83.9636 8.35059L84.4191 10.7799C84.4191 10.7799 85.9374 17.6124 86.2411 19.1307H79.8641C80.4714 17.6124 82.9008 11.0836 82.9008 11.0836C82.9008 11.0836 83.5081 9.41341 83.9636 8.35059" fill="#051244"/>
</svg>
